<?xml version="1.0" encoding="UTF-8" standalone="no"?>
<!-- Creator: fig2dev Version 3.2.8b -->
<!-- CreationDate: 2026-02-25 00:12:32 -->
<!-- Magnification: 1 -->
<svg	xmlns="http://www.w3.org/2000/svg"
	xmlns:xlink="http://www.w3.org/1999/xlink"
	width="912pt" height="392pt"
	viewBox="193 -375 15195 6526">
<g fill="none">
<!-- Line -->
<polyline points=" 8475,3600 8475,2100"
	stroke="#000000" stroke-width="15px"/>
<!-- Line -->
<polyline points=" 975,1200 4275,1200"
	stroke="#000000" stroke-width="15px"/>
<!-- Line -->
<polyline points=" 4275,1200 4275,4500"
	stroke="#000000" stroke-width="15px"/>
<!-- Line -->
<polyline points=" 3375,3600 4275,4500"
	stroke="#000000" stroke-width="15px"/>
<!-- Line -->
<polyline points=" 4275,4500 6075,4500"
	stroke="#000000" stroke-width="15px"/>
<!-- Line -->
<polyline points=" 6975,3600 6975,2100"
	stroke="#000000" stroke-width="15px"/>
<!-- Line -->
<polyline points=" 11175,4500 14475,4500"
	stroke="#000000" stroke-width="15px"/>
<!-- Line -->
<polyline points=" 4275,1200 3375,2100"
	stroke="#000000" stroke-width="90px"/>
<!-- Line -->
<polyline points=" 6075,1200 6975,2100"
	stroke="#000000" stroke-width="90px"/>
<!-- Line -->
<polyline points=" 8475,2100 9375,1200"
	stroke="#000000" stroke-width="90px"/>
<!-- Line -->
<polyline points=" 9375,4500 8475,3600"
	stroke="#000000" stroke-width="90px"/>
<!-- Line -->
<polyline points=" 6075,4500 6975,3600"
	stroke="#000000" stroke-width="90px"/>
<!-- Line -->
<polyline points=" 11175,1200 12075,2100"
	stroke="#000000" stroke-width="90px"/>
<!-- Line -->
<polyline points=" 9375,4500 9375,1200"
	stroke="#000000" stroke-width="90px"/>
<!-- Line -->
<polyline points=" 3375,2100 3375,3600"
	stroke="#000000" stroke-width="90px"/>
<!-- Line -->
<polyline points=" 975,4500 4275,4500"
	stroke="#000000" stroke-width="90px"/>
<!-- Line -->
<polyline points=" 975,4500 1875,3600"
	stroke="#000000" stroke-width="90px"/>
<!-- Line -->
<polyline points=" 1875,2100 1875,3600"
	stroke="#000000" stroke-width="90px"/>
<!-- Line -->
<polyline points=" 975,1200 1875,2100"
	stroke="#000000" stroke-width="90px"/>
<!-- Line -->
<polyline points=" 6075,4500 6075,1200"
	stroke="#000000" stroke-width="90px"/>
<!-- Line -->
<polyline points=" 11100,4500 12075,3600"
	stroke="#000000" stroke-width="90px"/>
<!-- Line -->
<polyline points=" 12075,3600 13575,3600"
	stroke="#000000" stroke-width="90px"/>
<!-- Line -->
<polyline points=" 13575,3600 14475,4500"
	stroke="#000000" stroke-width="90px"/>
<!-- Line -->
<polyline points=" 9375,1200 11175,1200"
	stroke="#000000" stroke-width="90px" stroke-dasharray="40 40"/>
<!-- Line -->
<polyline points=" 11175,1200 11175,4500"
	stroke="#000000" stroke-width="90px" stroke-dasharray="40 40"/>
<!-- Line -->
<polyline points=" 12075,3600 12075,2100"
	stroke="#000000" stroke-width="90px" stroke-dasharray="40 40"/>
<!-- Line -->
<polyline points=" 9375,4500 11175,4500"
	stroke="#000000" stroke-width="90px"/>
<!-- Line -->
<polyline points=" 6975,3600 8475,3600"
	stroke="#000000" stroke-width="90px" stroke-dasharray="40 40"/>
<!-- Line -->
<polyline points=" 6975,2100 8475,2100"
	stroke="#000000" stroke-width="90px" stroke-dasharray="40 40"/>
<!-- Line -->
<polyline points=" 6075,1200 9375,1200"
	stroke="#000000" stroke-width="90px" stroke-dasharray="40 40"/>
<!-- Line -->
<polyline points=" 1875,3600 3375,3600"
	stroke="#000000" stroke-width="90px" stroke-dasharray="40 40"/>
<!-- Line -->
<polyline points=" 1875,2100 3375,2100"
	stroke="#000000" stroke-width="90px" stroke-dasharray="40 40"/>
<!-- Line -->
<polyline points=" 11175,1200 14475,1200"
	stroke="#000000" stroke-width="15px"/>
<!-- Line -->
<polyline points=" 14475,1200 13575,2100"
	stroke="#000000" stroke-width="90px"/>
<!-- Line -->
<polyline points=" 14475,4500 14475,1200"
	stroke="#000000" stroke-width="90px" stroke-dasharray="40 40"/>
<!-- Line -->
<polyline points=" 975,1200 975,4500"
	stroke="#000000" stroke-width="15px"/>
<!-- Line -->
<polyline points=" 12075,2100 13575,2100"
	stroke="#000000" stroke-width="90px"/>
<!-- Line -->
<polyline points=" 13575,3600 13575,2100"
	stroke="#000000" stroke-width="15px"/>
<!-- Line -->
<polyline points=" 6075,4500 9375,4500"
	stroke="#000000" stroke-width="15px"/>
<!-- Line -->
<polygon points=" 4275,800 4298,803 4321,808 4344,814 4368,821 4392,829 4416,839 4440,850 4465,862
 4489,875 4513,889 4537,905 4561,921 4584,938 4607,956 4628,974 4649,993 4669,1012
 4687,1032 4705,1051 4721,1071 4736,1090 4750,1110 4763,1130 4775,1150 4785,1169
 4795,1188 4803,1207 4811,1227 4818,1247 4824,1268 4830,1290 4834,1312 4837,1335
 4839,1359 4840,1383 4840,1407 4839,1432 4836,1457 4832,1482 4827,1507 4821,1532
 4813,1557 4805,1582 4795,1606 4784,1631 4772,1655 4759,1679 4744,1703 4729,1726
 4713,1750 4698,1769 4683,1789 4667,1809 4650,1829 4632,1850 4613,1872 4593,1893
 4573,1916 4552,1939 4530,1963 4507,1987 4484,2012 4461,2037 4437,2063 4413,2089
 4389,2116 4365,2143 4341,2170 4318,2197 4295,2225 4272,2253 4250,2281 4229,2309
 4208,2337 4188,2365 4169,2393 4151,2421 4134,2449 4118,2477 4103,2505 4088,2534
 4075,2563 4063,2592 4051,2622 4040,2652 4030,2683 4020,2715 4011,2748 4003,2781
 3995,2815 3988,2850 3981,2885 3974,2921 3968,2957 3962,2993 3956,3030 3951,3067
 3946,3104 3941,3140 3937,3177 3932,3212 3927,3248 3923,3282 3918,3316 3914,3349
 3909,3381 3904,3412 3899,3442 3894,3471 3889,3498 3883,3525 3876,3551 3870,3576
 3863,3600 3853,3629 3842,3656 3831,3683 3818,3708 3804,3733 3790,3758 3774,3781
 3758,3803 3741,3825 3723,3846 3704,3865 3684,3884 3665,3901 3644,3917 3624,3932
 3603,3946 3583,3958 3563,3969 3543,3978 3523,3987 3503,3994 3484,4000 3466,4004
 3448,4008 3430,4011 3413,4013 3398,4013 3383,4013 3369,4013 3354,4011 3340,4009
 3325,4005 3311,4001 3297,3995 3283,3988 3269,3980 3255,3971 3241,3960 3228,3948
 3214,3934 3201,3920 3189,3903 3177,3886 3165,3866 3154,3846 3143,3824 3132,3801
 3123,3777 3113,3751 3105,3725 3096,3697 3089,3668 3082,3637 3075,3605 3068,3572
 3063,3538 3058,3509 3054,3479 3050,3448 3046,3416 3043,3383 3039,3348 3036,3312
 3034,3275 3031,3237 3029,3197 3027,3157 3026,3115 3024,3072 3023,3029 3023,2984
 3023,2939 3023,2893 3023,2847 3024,2800 3026,2754 3027,2707 3029,2660 3032,2614
 3035,2567 3038,2522 3041,2476 3045,2432 3050,2388 3054,2345 3059,2303 3065,2262
 3071,2222 3077,2182 3083,2144 3090,2107 3097,2070 3105,2035 3113,2000 3122,1960
 3133,1920 3144,1881 3156,1843 3169,1806 3182,1769 3196,1732 3211,1696 3226,1660
 3243,1625 3259,1591 3277,1556 3295,1523 3313,1490 3332,1458 3351,1427 3371,1397
 3391,1368 3411,1340 3431,1312 3451,1286 3471,1261 3491,1237 3511,1214 3531,1192
 3550,1171 3569,1151 3588,1132 3607,1113 3626,1096 3644,1079 3663,1063 3687,1041
 3711,1021 3736,1001 3761,982 3786,963 3812,945 3838,928 3865,912 3891,896 3919,881
 3946,867 3973,854 4001,843 4028,833 4054,824 4081,816 4107,809 4132,804 4157,800
 4182,798 4205,797 4229,797 4252,798"
	stroke="#000000" stroke-width="15px" stroke-linejoin="bevel"/>
<!-- Line -->
<polyline points=" 975,1200 976,1199 980,1195 985,1189 994,1180 1007,1167 1024,1151 1045,1130 1069,1106
 1097,1078 1128,1049 1162,1017 1197,983 1233,949 1270,915 1308,882 1345,849 1382,817
 1419,787 1455,757 1490,730 1525,703 1559,679 1593,655 1627,633 1660,612 1694,591
 1729,572 1764,553 1800,535 1837,517 1875,500 1899,489 1924,479 1949,469 1975,458
 2001,448 2029,438 2057,428 2086,417 2117,407 2148,397 2181,387 2215,377 2250,367
 2287,357 2324,347 2364,337 2404,327 2446,317 2490,308 2535,298 2582,289 2630,279
 2679,270 2731,260 2783,251 2837,242 2893,233 2950,225 3009,216 3069,208 3130,200
 3193,192 3257,184 3322,176 3388,169 3456,162 3525,155 3596,148 3667,142 3740,135
 3813,129 3888,123 3965,118 4042,112 4121,107 4201,102 4282,97 4365,92 4449,88
 4535,83 4623,79 4713,75 4775,72 4838,70 4903,67 4968,65 5035,62 5103,60 5171,58
 5241,55 5312,53 5384,51 5458,49 5532,47 5608,46 5685,44 5762,42 5841,41 5921,39
 6002,38 6085,36 6168,35 6252,34 6337,33 6423,32 6510,31 6597,31 6686,30 6775,29
 6865,29 6955,29 7046,28 7138,28 7230,28 7322,29 7414,29 7507,29 7600,30 7693,30
 7786,31 7879,32 7972,33 8065,34 8157,35 8249,37 8341,38 8432,40 8523,42 8613,44
 8702,46 8791,48 8879,50 8966,52 9052,55 9137,57 9222,60 9305,63 9387,66 9469,69
 9549,72 9628,76 9706,79 9782,83 9858,86 9932,90 10005,94 10077,98 10147,102 10217,106
 10285,111 10352,115 10418,120 10482,125 10545,129 10608,134 10669,139 10729,145
 10788,150 10879,159 10967,168 11054,177 11138,187 11220,198 11301,208 11379,220
 11456,231 11531,243 11604,256 11676,269 11746,282 11814,296 11881,310 11946,325
 12009,340 12070,356 12130,372 12188,389 12245,405 12299,423 12352,440 12403,458
 12452,476 12499,494 12545,513 12588,532 12630,551 12670,570 12708,589 12745,608
 12779,628 12813,647 12844,667 12874,686 12902,706 12929,725 12954,745 12979,764
 13001,783 13023,803 13044,822 13064,841 13082,861 13100,880 13117,899 13134,918
 13150,938 13172,965 13193,993 13213,1021 13232,1049 13250,1079 13268,1109 13285,1140
 13302,1173 13318,1207 13334,1243 13350,1280 13366,1319 13381,1360 13397,1403
 13412,1448 13427,1494 13442,1541 13457,1590 13472,1639 13486,1687 13500,1735
 13512,1781 13524,1825 13535,1866 13544,1902 13553,1934 13559,1961 13565,1983
 13569,2000 13572,2012 13574,2019 13575,2023 13575,2025"
	stroke="#000000" stroke-width="90px" stroke-linejoin="bevel" stroke-dasharray="40 40"/>
<!-- Line -->
<polygon points=" 5638,600 5658,592 5679,585 5701,579 5724,573 5748,567 5773,563 5799,558 5826,555
 5854,552 5883,550 5913,548 5944,548 5975,548 6006,548 6038,550 6070,552 6102,555
 6133,559 6165,563 6196,568 6227,574 6257,581 6287,588 6317,595 6346,604 6375,613
 6402,621 6429,631 6457,641 6484,652 6512,664 6541,676 6569,689 6598,703 6627,718
 6657,734 6686,750 6716,766 6745,784 6774,801 6802,819 6830,838 6858,857 6884,876
 6910,894 6935,913 6959,932 6982,951 7004,970 7025,989 7045,1007 7064,1026 7082,1044
 7100,1063 7116,1080 7131,1097 7146,1115 7160,1133 7174,1152 7188,1172 7201,1193
 7214,1214 7227,1237 7239,1260 7251,1285 7262,1311 7273,1338 7283,1366 7293,1395
 7303,1425 7312,1457 7321,1490 7329,1523 7336,1558 7343,1594 7350,1630 7356,1668
 7362,1707 7367,1746 7372,1787 7376,1829 7380,1872 7384,1916 7388,1963 7390,1997
 7392,2032 7394,2068 7396,2105 7398,2143 7400,2183 7402,2223 7403,2265 7405,2308
 7406,2352 7407,2397 7408,2444 7409,2491 7410,2539 7410,2588 7411,2638 7411,2688
 7411,2739 7410,2791 7410,2842 7409,2894 7409,2946 7408,2999 7406,3050 7405,3102
 7403,3153 7401,3204 7399,3254 7397,3304 7395,3352 7392,3400 7389,3447 7386,3493
 7383,3538 7379,3582 7376,3625 7372,3667 7368,3708 7364,3748 7359,3787 7355,3825
 7350,3863 7343,3910 7336,3957 7329,4002 7321,4047 7312,4091 7303,4134 7294,4176
 7284,4218 7274,4259 7263,4300 7251,4339 7239,4378 7227,4416 7214,4452 7201,4488
 7188,4523 7174,4557 7160,4589 7146,4620 7132,4650 7118,4678 7104,4706 7089,4731
 7075,4756 7061,4779 7047,4801 7032,4822 7018,4842 7004,4861 6990,4879 6976,4896
 6963,4913 6944,4933 6925,4954 6905,4973 6886,4992 6865,5009 6844,5027 6822,5043
 6800,5059 6777,5074 6754,5089 6730,5102 6706,5115 6681,5127 6656,5138 6632,5148
 6607,5157 6582,5165 6558,5172 6533,5178 6509,5184 6485,5189 6461,5193 6437,5197
 6413,5200 6390,5202 6367,5204 6343,5206 6319,5207 6294,5208 6269,5208 6242,5207
 6216,5205 6188,5203 6160,5200 6132,5197 6104,5192 6075,5187 6046,5180 6018,5173
 5990,5165 5962,5156 5934,5146 5908,5135 5881,5124 5856,5112 5831,5099 5807,5085
 5783,5070 5760,5054 5738,5038 5719,5023 5701,5008 5683,4992 5665,4975 5647,4957
 5630,4938 5612,4918 5594,4896 5576,4873 5558,4850 5540,4825 5523,4798 5505,4771
 5488,4742 5471,4712 5455,4682 5439,4650 5423,4617 5408,4584 5393,4550 5379,4515
 5365,4480 5352,4444 5340,4407 5328,4370 5317,4333 5307,4296 5297,4258 5287,4219
 5279,4180 5270,4140 5263,4100 5257,4067 5251,4033 5246,3999 5241,3964 5236,3928
 5231,3891 5227,3853 5223,3815 5219,3775 5215,3734 5211,3693 5208,3651 5205,3608
 5202,3564 5199,3519 5197,3474 5194,3429 5192,3383 5191,3336 5189,3290 5187,3243
 5186,3196 5185,3149 5184,3103 5183,3056 5183,3010 5182,2964 5182,2919 5182,2874
 5182,2830 5182,2787 5183,2744 5183,2702 5183,2661 5184,2620 5184,2580 5185,2540
 5186,2501 5187,2463 5188,2425 5188,2383 5190,2342 5191,2300 5192,2259 5193,2218
 5194,2176 5196,2135 5197,2094 5199,2052 5201,2011 5203,1969 5205,1928 5207,1886
 5209,1845 5212,1805 5214,1764 5217,1724 5219,1685 5222,1646 5225,1608 5228,1570
 5232,1534 5235,1498 5238,1463 5242,1429 5246,1397 5249,1365 5253,1335 5257,1305
 5261,1277 5265,1249 5269,1223 5274,1197 5278,1172 5283,1148 5288,1125 5294,1094
 5301,1064 5309,1034 5317,1006 5326,978 5335,951 5345,924 5355,898 5366,873 5378,849
 5391,825 5404,803 5417,781 5432,761 5446,741 5462,723 5478,706 5494,690 5510,675
 5527,662 5545,649 5563,637 5581,627 5599,617 5618,608"
	stroke="#000000" stroke-width="15px" stroke-linejoin="bevel"/>
<!-- Line -->
<polygon points=" 600,663 621,656 644,650 667,645 691,640 715,635 741,631 768,628 796,625 825,623
 854,622 884,621 915,620 946,621 978,622 1009,624 1041,626 1072,630 1104,634 1134,638
 1165,643 1195,649 1224,656 1253,663 1282,670 1310,679 1338,688 1359,695 1380,703
 1401,711 1423,720 1444,730 1466,740 1488,751 1510,764 1532,777 1554,791 1577,807
 1599,824 1622,841 1644,860 1667,881 1689,902 1711,925 1733,949 1754,974 1775,1000
 1796,1028 1816,1057 1836,1086 1855,1117 1873,1149 1891,1182 1908,1216 1925,1252
 1941,1288 1956,1325 1971,1364 1985,1404 1999,1445 2013,1488 2023,1522 2032,1557
 2042,1593 2051,1630 2061,1669 2070,1708 2079,1749 2088,1791 2097,1834 2106,1878
 2115,1924 2123,1970 2132,2017 2141,2065 2149,2114 2158,2164 2166,2214 2174,2265
 2183,2316 2191,2368 2199,2420 2207,2472 2215,2523 2223,2575 2231,2626 2239,2677
 2247,2728 2255,2778 2262,2827 2270,2875 2278,2923 2285,2969 2293,3015 2300,3059
 2308,3102 2315,3144 2322,3185 2330,3225 2337,3263 2345,3300 2352,3336 2360,3371
 2367,3405 2375,3438 2385,3478 2396,3517 2407,3555 2418,3591 2430,3625 2442,3659
 2455,3691 2469,3723 2483,3753 2498,3782 2514,3809 2531,3836 2548,3861 2566,3885
 2585,3908 2605,3930 2626,3950 2647,3969 2669,3987 2692,4004 2715,4020 2739,4034
 2764,4047 2789,4060 2815,4071 2841,4081 2868,4091 2896,4099 2924,4107 2953,4114
 2982,4121 3012,4127 3043,4132 3075,4138 3104,4142 3135,4146 3166,4150 3198,4154
 3231,4158 3266,4162 3301,4165 3337,4169 3374,4173 3413,4177 3452,4181 3492,4185
 3533,4189 3574,4193 3617,4197 3659,4202 3702,4207 3746,4212 3789,4217 3833,4223
 3876,4229 3919,4235 3962,4242 4005,4248 4047,4256 4088,4263 4128,4271 4168,4279
 4207,4288 4244,4297 4281,4307 4317,4317 4352,4327 4386,4338 4419,4350 4451,4362
 4482,4374 4513,4388 4547,4404 4581,4422 4615,4440 4647,4460 4679,4481 4710,4503
 4741,4525 4772,4549 4802,4574 4831,4599 4861,4625 4889,4652 4917,4680 4945,4708
 4972,4736 4999,4764 5025,4793 5051,4821 5075,4849 5100,4877 5123,4904 5146,4931
 5168,4957 5190,4982 5211,5006 5232,5030 5252,5052 5272,5074 5292,5094 5311,5114
 5331,5132 5350,5150 5374,5170 5398,5190 5423,5208 5448,5225 5474,5241 5501,5256
 5528,5270 5556,5283 5585,5296 5614,5307 5643,5317 5673,5326 5703,5335 5734,5342
 5764,5349 5794,5354 5824,5359 5854,5363 5883,5367 5912,5369 5940,5371 5968,5373
 5995,5374 6022,5375 6049,5375 6075,5375 6101,5375 6128,5375 6155,5374 6182,5373
 6210,5372 6238,5371 6267,5369 6296,5366 6325,5364 6355,5361 6385,5357 6415,5353
 6445,5349 6475,5344 6504,5338 6533,5332 6561,5326 6589,5319 6617,5312 6643,5305
 6669,5297 6694,5288 6718,5279 6742,5270 6765,5260 6788,5250 6808,5240 6829,5229
 6850,5218 6870,5206 6891,5193 6912,5179 6933,5164 6955,5148 6977,5132 6998,5114
 7021,5095 7043,5075 7065,5055 7088,5033 7110,5011 7132,4987 7154,4963 7177,4939
 7198,4913 7220,4888 7242,4861 7263,4834 7284,4807 7305,4779 7325,4751 7346,4722
 7367,4693 7388,4663 7404,4638 7420,4614 7437,4588 7454,4562 7471,4534 7489,4506
 7507,4477 7525,4447 7543,4416 7562,4384 7580,4352 7599,4318 7618,4283 7637,4248
 7656,4212 7675,4175 7694,4137 7713,4099 7731,4060 7750,4022 7768,3982 7785,3943
 7802,3903 7819,3864 7835,3824 7851,3785 7866,3746 7880,3707 7894,3668 7908,3629
 7920,3591 7932,3552 7944,3514 7955,3476 7965,3438 7975,3400 7984,3364 7992,3327
 8000,3290 8008,3253 8015,3215 8023,3176 8029,3137 8036,3097 8043,3057 8049,3016
 8055,2975 8062,2933 8068,2890 8074,2847 8080,2804 8086,2760 8092,2716 8097,2672
 8103,2628 8110,2585 8116,2541 8122,2497 8128,2454 8135,2411 8141,2369 8148,2327
 8155,2286 8162,2245 8169,2205 8177,2166 8185,2127 8193,2089 8202,2052 8210,2016
 8220,1980 8229,1944 8239,1910 8250,1875 8262,1837 8276,1799 8290,1761 8304,1723
 8320,1685 8336,1647 8354,1609 8372,1571 8390,1534 8410,1496 8430,1458 8452,1421
 8473,1384 8496,1347 8519,1311 8542,1275 8566,1240 8590,1206 8614,1172 8638,1140
 8663,1109 8687,1078 8712,1049 8736,1022 8760,995 8784,970 8807,946 8830,923 8853,902
 8876,882 8898,863 8920,845 8941,828 8963,813 8985,797 9007,782 9030,769 9052,757
 9075,745 9097,735 9120,726 9143,718 9166,711 9190,706 9213,702 9237,699 9260,698
 9284,697 9307,699 9331,702 9354,706 9377,711 9400,718 9422,727 9444,737 9466,748
 9487,760 9508,774 9529,789 9549,805 9569,822 9588,840 9607,860 9626,880 9644,902
 9663,925 9679,947 9695,969 9711,993 9727,1018 9744,1044 9760,1071 9777,1100 9794,1130
 9810,1161 9827,1193 9844,1227 9861,1261 9878,1297 9895,1333 9912,1370 9928,1409
 9945,1447 9961,1487 9977,1527 9993,1567 10008,1607 10024,1647 10038,1687 10053,1728
 10066,1767 10080,1807 10093,1846 10105,1885 10117,1923 10129,1961 10139,1998
 10150,2034 10160,2070 10170,2106 10179,2140 10188,2175 10195,2206 10203,2236
 10210,2267 10217,2297 10224,2328 10232,2358 10240,2389 10248,2419 10256,2450
 10265,2480 10274,2511 10284,2541 10295,2572 10306,2602 10319,2632 10332,2662
 10346,2691 10362,2721 10378,2749 10396,2778 10414,2806 10434,2833 10456,2860
 10478,2886 10502,2912 10527,2936 10554,2960 10582,2983 10611,3006 10642,3027
 10674,3048 10708,3068 10743,3087 10780,3106 10818,3123 10858,3140 10900,3156
 10944,3171 10990,3186 11038,3200 11074,3210 11113,3220 11152,3229 11193,3238
 11235,3247 11279,3256 11324,3265 11370,3273 11418,3281 11467,3290 11517,3297
 11569,3305 11622,3313 11676,3321 11732,3328 11788,3336 11846,3343 11905,3350
 11965,3357 12025,3365 12087,3372 12149,3379 12212,3386 12275,3393 12339,3400
 12403,3407 12467,3414 12532,3421 12596,3428 12661,3436 12725,3443 12789,3450
 12853,3457 12916,3465 12979,3472 13041,3479 13102,3487 13162,3495 13222,3502
 13281,3510 13338,3518 13395,3526 13451,3534 13505,3543 13559,3551 13611,3560
 13662,3569 13712,3578 13761,3587 13808,3597 13855,3606 13900,3617 13944,3627
 13988,3638 14042,3652 14094,3667 14145,3682 14195,3698 14243,3715 14290,3732
 14336,3751 14380,3769 14424,3789 14466,3810 14507,3831 14547,3853 14585,3875
 14622,3898 14658,3922 14692,3947 14725,3972 14757,3998 14787,4024 14816,4051
 14843,4078 14869,4105 14893,4133 14915,4161 14936,4189 14955,4217 14973,4246
 14989,4274 15004,4303 15017,4331 15029,4360 15039,4388 15048,4416 15056,4444
 15062,4472 15067,4499 15071,4527 15074,4554 15076,4581 15076,4608 15076,4635
 15075,4663 15073,4690 15070,4717 15066,4744 15061,4771 15054,4799 15047,4827
 15038,4855 15028,4884 15016,4912 15003,4941 14989,4970 14972,5000 14955,5029
 14935,5059 14914,5089 14891,5119 14866,5148 14839,5178 14811,5208 14781,5237
 14749,5267 14715,5296 14680,5325 14642,5353 14603,5381 14562,5408 14520,5435
 14476,5462 14431,5487 14383,5512 14335,5537 14285,5561 14233,5584 14180,5606
 14126,5628 14070,5649 14012,5670 13953,5689 13893,5709 13830,5727 13766,5745
 13700,5763 13659,5773 13618,5783 13576,5793 13532,5802 13488,5812 13443,5821
 13397,5831 13350,5840 13302,5849 13253,5858 13202,5867 13151,5876 13098,5884
 13045,5893 12990,5901 12934,5909 12876,5917 12818,5925 12758,5933 12697,5941
 12636,5948 12572,5956 12508,5963 12443,5971 12376,5978 12309,5985 12240,5991
 12170,5998 12100,6004 12028,6011 11955,6017 11882,6023 11808,6029 11733,6035
 11657,6040 11580,6046 11503,6051 11425,6056 11346,6061 11267,6066 11187,6070
 11107,6075 11027,6079 10946,6083 10865,6087 10784,6091 10702,6095 10620,6098
 10538,6101 10456,6104 10374,6107 10291,6110 10209,6113 10126,6115 10044,6118
 9962,6120 9879,6122 9796,6124 9714,6126 9631,6127 9549,6129 9466,6130 9384,6132
 9301,6133 9218,6134 9135,6135 9052,6136 8968,6136 8884,6137 8800,6138 8724,6138
 8648,6138 8571,6138 8493,6139 8415,6139 8337,6139 8258,6139 8178,6138 8098,6138
 8017,6138 7936,6137 7853,6137 7770,6136 7687,6136 7603,6135 7518,6134 7432,6133
 7346,6132 7260,6130 7172,6129 7085,6128 6996,6126 6907,6124 6818,6122 6728,6121
 6638,6119 6548,6116 6457,6114 6366,6112 6275,6109 6183,6107 6092,6104 6000,6101
 5909,6098 5817,6095 5726,6092 5634,6088 5543,6085 5453,6081 5362,6078 5272,6074
 5183,6070 5094,6066 5005,6062 4917,6057 4830,6053 4743,6049 4658,6044 4573,6039
 4489,6034 4406,6030 4323,6025 4242,6020 4162,6014 4083,6009 4004,6004 3927,5998
 3851,5993 3776,5987 3703,5981 3630,5975 3559,5969 3489,5963 3420,5957 3352,5951
 3285,5945 3220,5939 3156,5932 3093,5926 3031,5919 2970,5912 2910,5905 2852,5899
 2794,5892 2738,5884 2683,5877 2628,5870 2575,5863 2500,5852 2426,5840 2354,5829
 2284,5817 2215,5805 2148,5792 2082,5779 2018,5765 1955,5751 1893,5736 1832,5721
 1773,5705 1715,5689 1659,5672 1603,5654 1549,5636 1496,5617 1444,5597 1394,5577
 1345,5556 1297,5534 1251,5511 1206,5488 1162,5464 1120,5440 1079,5414 1039,5388
 1001,5362 964,5334 929,5306 895,5278 862,5249 831,5219 801,5188 772,5157 745,5126
 718,5093 693,5061 670,5027 647,4994 626,4959 605,4925 586,4889 567,4853 550,4817
 533,4780 517,4743 502,4705 488,4666 474,4627 461,4587 449,4546 437,4505 425,4463
 413,4418 402,4372 391,4325 380,4277 370,4228 360,4178 350,4127 341,4074 332,4021
 323,3966 315,3910 307,3853 299,3796 291,3737 284,3677 277,3616 271,3555 264,3492
 258,3429 253,3366 247,3302 242,3237 238,3173 233,3108 229,3043 226,2978 222,2913
 219,2849 216,2785 214,2721 212,2658 210,2595 208,2533 207,2472 206,2412 206,2353
 205,2295 205,2238 205,2182 205,2128 206,2074 207,2022 208,1972 209,1922 210,1874
 212,1828 214,1782 216,1738 218,1696 220,1654 222,1614 225,1575 229,1518 234,1463
 239,1410 244,1360 250,1312 256,1266 263,1221 270,1179 278,1138 286,1099 295,1062
 305,1027 314,994 325,963 335,933 347,905 358,879 370,855 383,833 396,812 409,793
 422,776 436,760 450,746 464,733 478,722 493,711 508,702 522,694 538,686 553,679
 568,673 584,668"
	stroke="#000000" stroke-width="8px" stroke-linejoin="bevel" stroke-dasharray="30 30"/>
<!-- Line -->
<polygon points=" 10875,1013 10861,1031 10847,1051 10833,1072 10820,1093 10808,1116 10796,1140
 10785,1164 10775,1190 10765,1217 10757,1245 10749,1274 10743,1303 10738,1333
 10734,1364 10732,1395 10731,1426 10731,1458 10733,1489 10737,1521 10742,1552
 10748,1582 10756,1613 10766,1643 10777,1673 10790,1702 10804,1731 10820,1759
 10838,1788 10852,1809 10868,1831 10886,1853 10904,1876 10924,1898 10945,1920
 10968,1943 10992,1965 11017,1988 11044,2011 11072,2034 11102,2057 11133,2080
 11166,2102 11200,2125 11235,2148 11271,2170 11309,2192 11347,2213 11387,2234
 11427,2255 11468,2275 11510,2295 11553,2314 11595,2332 11639,2350 11682,2367
 11726,2383 11770,2398 11815,2413 11859,2427 11904,2441 11950,2453 11995,2465
 12041,2477 12088,2488 12126,2496 12165,2504 12205,2512 12245,2519 12286,2526
 12328,2532 12370,2539 12413,2545 12457,2550 12502,2555 12548,2560 12594,2564
 12641,2568 12688,2571 12736,2574 12785,2576 12834,2578 12884,2580 12934,2580
 12984,2581 13034,2581 13084,2580 13134,2579 13184,2577 13234,2575 13284,2572
 13333,2569 13382,2565 13430,2560 13477,2555 13524,2550 13570,2544 13616,2538
 13660,2531 13704,2524 13747,2516 13789,2508 13831,2499 13871,2490 13911,2480
 13950,2470 13988,2460 14026,2449 14063,2438 14105,2424 14146,2409 14187,2394
 14228,2377 14268,2360 14308,2343 14348,2324 14387,2305 14425,2284 14464,2263
 14501,2241 14539,2219 14575,2196 14611,2172 14646,2147 14680,2122 14714,2096
 14746,2070 14777,2043 14807,2017 14836,1990 14864,1962 14890,1935 14915,1908
 14939,1881 14961,1854 14981,1827 15000,1800 15018,1773 15034,1747 15049,1721
 15062,1696 15074,1671 15084,1646 15093,1622 15101,1597 15107,1574 15113,1550
 15117,1525 15119,1501 15120,1476 15120,1452 15118,1427 15115,1403 15110,1378
 15103,1354 15095,1329 15085,1304 15073,1280 15059,1256 15043,1231 15026,1207
 15006,1183 14985,1160 14962,1136 14937,1113 14910,1091 14882,1069 14852,1048
 14820,1027 14787,1007 14752,988 14716,969 14679,951 14640,934 14600,918 14559,902
 14517,887 14473,873 14429,859 14383,847 14336,835 14287,823 14238,813 14199,805
 14160,797 14119,790 14078,783 14036,777 13992,770 13947,764 13902,759 13855,753
 13807,748 13758,743 13709,738 13658,733 13606,729 13553,725 13500,721 13446,717
 13391,714 13336,711 13280,708 13223,706 13167,703 13110,701 13053,699 12997,698
 12940,696 12884,695 12828,694 12772,694 12717,693 12663,693 12609,693 12556,693
 12504,693 12453,694 12403,694 12354,695 12306,696 12259,697 12213,698 12169,700
 12125,701 12083,703 12042,705 12002,706 11963,708 11925,710 11888,713 11834,716
 11782,719 11732,723 11683,727 11636,732 11590,737 11546,742 11502,747 11461,753
 11420,760 11381,767 11343,774 11306,782 11271,790 11237,799 11205,808 11174,818
 11145,828 11117,839 11091,850 11067,861 11043,873 11022,885 11001,898 10982,911
 10964,924 10947,938 10931,952 10916,966 10902,981 10888,997"
	stroke="#000000" stroke-width="8px" stroke-linejoin="bevel"/>
<!-- Line -->
<polyline points=" 947,4548 948,4551 950,4556 955,4567 961,4582 970,4602 980,4627 993,4655 1007,4685
 1022,4717 1038,4748 1055,4779 1071,4809 1088,4837 1105,4864 1123,4889 1141,4913
 1159,4936 1179,4958 1200,4980 1223,5001 1247,5023 1261,5035 1276,5047 1291,5060
 1307,5072 1324,5085 1342,5097 1361,5110 1382,5123 1404,5137 1427,5150 1451,5164
 1477,5177 1505,5191 1534,5205 1565,5219 1597,5233 1632,5246 1668,5260 1705,5274
 1745,5288 1786,5301 1829,5314 1874,5327 1921,5340 1969,5353 2019,5365 2070,5377
 2123,5389 2178,5400 2234,5411 2291,5421 2350,5431 2411,5441 2473,5450 2537,5459
 2603,5468 2670,5476 2740,5484 2811,5491 2885,5498 2933,5502 2983,5507 3034,5511
 3086,5515 3139,5519 3193,5522 3249,5526 3306,5529 3364,5533 3423,5536 3483,5539
 3544,5542 3607,5545 3670,5548 3735,5551 3801,5553 3868,5556 3936,5558 4005,5560
 4074,5562 4145,5564 4216,5566 4288,5568 4361,5569 4434,5571 4508,5572 4582,5574
 4657,5575 4731,5576 4806,5576 4881,5577 4956,5578 5031,5578 5105,5579 5180,5579
 5254,5579 5327,5579 5400,5579 5472,5579 5544,5578 5615,5578 5685,5577 5754,5577
 5823,5576 5890,5575 5956,5574 6022,5573 6086,5572 6149,5571 6211,5570 6271,5568
 6331,5567 6389,5565 6446,5564 6502,5562 6557,5560 6610,5558 6662,5556 6713,5554
 6763,5552 6812,5550 6859,5548 6860,5548 6931,5544 7001,5541 7068,5537 7134,5533
 7197,5528 7259,5524 7319,5519 7378,5514 7435,5508 7491,5503 7545,5497 7597,5490
 7648,5484 7698,5477 7746,5470 7793,5462 7838,5455 7881,5447 7923,5438 7964,5430
 8002,5421 8040,5412 8076,5402 8110,5393 8143,5383 8174,5373 8204,5363 8233,5352
 8260,5342 8286,5331 8311,5320 8335,5309 8358,5298 8381,5287 8402,5275 8423,5263
 8443,5252 8463,5240 8482,5227 8502,5215 8526,5199 8550,5183 8574,5165 8598,5148
 8623,5129 8648,5109 8674,5088 8701,5066 8728,5042 8757,5017 8788,4990 8819,4962
 8852,4932 8886,4901 8921,4868 8957,4833 8994,4798 9031,4763 9068,4728 9104,4693
 9138,4659 9170,4628 9200,4599 9226,4574 9248,4552 9265,4534 9279,4521 9289,4511
 9295,4505 9298,4502 9300,4500"
	stroke="#000000" stroke-width="90px" stroke-linejoin="bevel"/>
<!-- Text -->
<text xml:space="preserve" x="525" y="1200" fill="#000000" font-family="New Century Schoolbook" font-style="italic" font-weight="bold" font-size="384" text-anchor="start">s</text>
<!-- Text -->
<text xml:space="preserve" x="525" y="4575" fill="#000000" font-family="New Century Schoolbook" font-style="italic" font-weight="bold" font-size="384" text-anchor="start">a</text>
<!-- Text -->
<text xml:space="preserve" x="4350" y="4950" fill="#000000" font-family="New Century Schoolbook" font-style="italic" font-weight="bold" font-size="384" text-anchor="start">b</text>
<!-- Text -->
<text xml:space="preserve" x="1500" y="2475" fill="#000000" font-family="New Century Schoolbook" font-style="italic" font-weight="bold" font-size="384" text-anchor="start">c</text>
<!-- Text -->
<text xml:space="preserve" x="1500" y="3675" fill="#000000" font-family="New Century Schoolbook" font-style="italic" font-weight="bold" font-size="384" text-anchor="start">e</text>
<!-- Text -->
<text xml:space="preserve" x="6675" y="3525" fill="#000000" font-family="New Century Schoolbook" font-style="italic" font-weight="bold" font-size="384" text-anchor="start">i</text>
<!-- Text -->
<text xml:space="preserve" x="11700" y="2400" fill="#000000" font-family="New Century Schoolbook" font-style="italic" font-weight="bold" font-size="384" text-anchor="start">x</text>
<!-- Text -->
<text xml:space="preserve" x="13725" y="2325" fill="#000000" font-family="New Century Schoolbook" font-style="italic" font-weight="bold" font-size="384" text-anchor="start">y</text>
<!-- Text -->
<text xml:space="preserve" x="13350" y="3975" fill="#000000" font-family="New Century Schoolbook" font-style="italic" font-weight="bold" font-size="384" text-anchor="start">z</text>
<!-- Text -->
<text xml:space="preserve" x="14400" y="5025" fill="#000000" font-family="New Century Schoolbook" font-style="italic" font-weight="bold" font-size="384" text-anchor="start">r</text>
<!-- Text -->
<text xml:space="preserve" x="5925" y="4950" fill="#000000" font-family="New Century Schoolbook" font-style="italic" font-weight="bold" font-size="384" text-anchor="start">m</text>
<!-- Text -->
<text xml:space="preserve" x="8625" y="2475" fill="#000000" font-family="New Century Schoolbook" font-style="italic" font-weight="bold" font-size="384" text-anchor="start">k</text>
<!-- Text -->
<text xml:space="preserve" x="3525" y="3675" fill="#000000" font-family="New Century Schoolbook" font-style="italic" font-weight="bold" font-size="384" text-anchor="start">d</text>
<!-- Text -->
<text xml:space="preserve" x="3600" y="2250" fill="#000000" font-family="New Century Schoolbook" font-style="italic" font-weight="bold" font-size="384" text-anchor="start">g</text>
<!-- Text -->
<text xml:space="preserve" x="4425" y="1575" fill="#000000" font-family="New Century Schoolbook" font-style="italic" font-weight="bold" font-size="384" text-anchor="start">f</text>
<!-- Text -->
<text xml:space="preserve" x="8625" y="3600" fill="#000000" font-family="New Century Schoolbook" font-style="italic" font-weight="bold" font-size="384" text-anchor="start">h</text>
<!-- Text -->
<text xml:space="preserve" x="5700" y="1125" fill="#000000" font-family="New Century Schoolbook" font-style="italic" font-weight="bold" font-size="384" text-anchor="start">p</text>
<!-- Text -->
<text xml:space="preserve" x="11100" y="4950" fill="#000000" font-family="New Century Schoolbook" font-style="italic" font-weight="bold" font-size="384" text-anchor="start">u</text>
<!-- Text -->
<text xml:space="preserve" x="6600" y="2400" fill="#000000" font-family="New Century Schoolbook" font-style="italic" font-weight="bold" font-size="384" text-anchor="start">j</text>
<!-- Text -->
<text xml:space="preserve" x="10800" y="1575" fill="#000000" font-family="New Century Schoolbook" font-style="italic" font-weight="bold" font-size="384" text-anchor="start">q</text>
<!-- Text -->
<text xml:space="preserve" x="9525" y="1575" fill="#000000" font-family="New Century Schoolbook" font-style="italic" font-weight="bold" font-size="384" text-anchor="start">o</text>
<!-- Text -->
<text xml:space="preserve" x="14625" y="1500" fill="#000000" font-family="New Century Schoolbook" font-style="italic" font-weight="bold" font-size="384" text-anchor="start">t</text>
<!-- Text -->
<text xml:space="preserve" x="12075" y="3975" fill="#000000" font-family="New Century Schoolbook" font-style="italic" font-weight="bold" font-size="384" text-anchor="start">v</text>
<!-- Text -->
<text xml:space="preserve" x="4500" y="2550" fill="#000000" font-family="Times" font-style="normal" font-weight="normal" font-size="504" text-anchor="start">B</text>
<!-- Text -->
<text xml:space="preserve" x="3150" y="975" fill="#000000" font-family="Times" font-style="normal" font-weight="normal" font-size="504" text-anchor="start">A</text>
<!-- Text -->
<text xml:space="preserve" x="6750" y="825" fill="#000000" font-family="Times" font-style="normal" font-weight="normal" font-size="504" text-anchor="start">B</text>
<!-- Text -->
<text xml:space="preserve" x="10425" y="900" fill="#000000" font-family="Times" font-style="normal" font-weight="normal" font-size="504" text-anchor="start">C</text>
<!-- Text -->
<text xml:space="preserve" x="14850" y="5700" fill="#000000" font-family="Times" font-style="normal" font-weight="normal" font-size="504" text-anchor="start">D</text>
<!-- Text -->
<text xml:space="preserve" x="9300" y="4950" fill="#000000" font-family="New Century Schoolbook" font-style="italic" font-weight="bold" font-size="384" text-anchor="start">n</text>
<!-- Circle -->
<defs>
<circle cx="975" cy="1200" r="75" id="p0"/>
<pattern id="tile0" patternUnits="userSpaceOnUse"
	x="0" y="0" width="134" height="67">
<g stroke-width="7.5" stroke="#000000" fill="none">
<path d="M -7,30 73,70 M 61,-3 141,37"/>
</g>
</pattern>
</defs>
<use xlink:href="#p0" fill="#000000"/>
<use xlink:href="#p0" fill="url(#tile0)"
	stroke="#000000" stroke-width="15px"/>
<!-- Circle -->
<defs>
<circle cx="1875" cy="3600" r="75" id="p1"/>
<pattern id="tile1" patternUnits="userSpaceOnUse"
	x="0" y="0" width="134" height="67">
<g stroke-width="7.5" stroke="#000000" fill="none">
<path d="M -7,30 73,70 M 61,-3 141,37"/>
</g>
</pattern>
</defs>
<use xlink:href="#p1" fill="#000000"/>
<use xlink:href="#p1" fill="url(#tile1)"
	stroke="#000000" stroke-width="15px"/>
<!-- Circle -->
<defs>
<circle cx="1875" cy="2100" r="75" id="p2"/>
<pattern id="tile2" patternUnits="userSpaceOnUse"
	x="0" y="0" width="134" height="67">
<g stroke-width="7.5" stroke="#000000" fill="none">
<path d="M -7,30 73,70 M 61,-3 141,37"/>
</g>
</pattern>
</defs>
<use xlink:href="#p2" fill="#000000"/>
<use xlink:href="#p2" fill="url(#tile2)"
	stroke="#000000" stroke-width="15px"/>
<!-- Circle -->
<defs>
<circle cx="3375" cy="2100" r="75" id="p3"/>
<pattern id="tile3" patternUnits="userSpaceOnUse"
	x="0" y="0" width="134" height="67">
<g stroke-width="7.5" stroke="#000000" fill="none">
<path d="M -7,30 73,70 M 61,-3 141,37"/>
</g>
</pattern>
</defs>
<use xlink:href="#p3" fill="#000000"/>
<use xlink:href="#p3" fill="url(#tile3)"
	stroke="#000000" stroke-width="15px"/>
<!-- Circle -->
<defs>
<circle cx="3375" cy="3600" r="75" id="p4"/>
<pattern id="tile4" patternUnits="userSpaceOnUse"
	x="0" y="0" width="134" height="67">
<g stroke-width="7.5" stroke="#000000" fill="none">
<path d="M -7,30 73,70 M 61,-3 141,37"/>
</g>
</pattern>
</defs>
<use xlink:href="#p4" fill="#000000"/>
<use xlink:href="#p4" fill="url(#tile4)"
	stroke="#000000" stroke-width="15px"/>
<!-- Circle -->
<defs>
<circle cx="975" cy="4500" r="75" id="p5"/>
<pattern id="tile5" patternUnits="userSpaceOnUse"
	x="0" y="0" width="134" height="67">
<g stroke-width="7.5" stroke="#000000" fill="none">
<path d="M -7,30 73,70 M 61,-3 141,37"/>
</g>
</pattern>
</defs>
<use xlink:href="#p5" fill="#000000"/>
<use xlink:href="#p5" fill="url(#tile5)"
	stroke="#000000" stroke-width="15px"/>
<!-- Circle -->
<defs>
<circle cx="4275" cy="1200" r="75" id="p6"/>
<pattern id="tile6" patternUnits="userSpaceOnUse"
	x="0" y="0" width="134" height="67">
<g stroke-width="7.5" stroke="#000000" fill="none">
<path d="M -7,30 73,70 M 61,-3 141,37"/>
</g>
</pattern>
</defs>
<use xlink:href="#p6" fill="#000000"/>
<use xlink:href="#p6" fill="url(#tile6)"
	stroke="#000000" stroke-width="15px"/>
<!-- Circle -->
<defs>
<circle cx="4275" cy="4500" r="75" id="p7"/>
<pattern id="tile7" patternUnits="userSpaceOnUse"
	x="0" y="0" width="134" height="67">
<g stroke-width="7.5" stroke="#000000" fill="none">
<path d="M -7,30 73,70 M 61,-3 141,37"/>
</g>
</pattern>
</defs>
<use xlink:href="#p7" fill="#000000"/>
<use xlink:href="#p7" fill="url(#tile7)"
	stroke="#000000" stroke-width="15px"/>
<!-- Circle -->
<defs>
<circle cx="11175" cy="1200" r="75" id="p8"/>
<pattern id="tile8" patternUnits="userSpaceOnUse"
	x="0" y="0" width="134" height="67">
<g stroke-width="7.5" stroke="#000000" fill="none">
<path d="M -7,30 73,70 M 61,-3 141,37"/>
</g>
</pattern>
</defs>
<use xlink:href="#p8" fill="#000000"/>
<use xlink:href="#p8" fill="url(#tile8)"
	stroke="#000000" stroke-width="15px"/>
<!-- Circle -->
<defs>
<circle cx="12075" cy="3600" r="75" id="p9"/>
<pattern id="tile9" patternUnits="userSpaceOnUse"
	x="0" y="0" width="134" height="67">
<g stroke-width="7.5" stroke="#000000" fill="none">
<path d="M -7,30 73,70 M 61,-3 141,37"/>
</g>
</pattern>
</defs>
<use xlink:href="#p9" fill="#000000"/>
<use xlink:href="#p9" fill="url(#tile9)"
	stroke="#000000" stroke-width="15px"/>
<!-- Circle -->
<defs>
<circle cx="12075" cy="2100" r="75" id="p10"/>
<pattern id="tile10" patternUnits="userSpaceOnUse"
	x="0" y="0" width="134" height="67">
<g stroke-width="7.5" stroke="#000000" fill="none">
<path d="M -7,30 73,70 M 61,-3 141,37"/>
</g>
</pattern>
</defs>
<use xlink:href="#p10" fill="#000000"/>
<use xlink:href="#p10" fill="url(#tile10)"
	stroke="#000000" stroke-width="15px"/>
<!-- Circle -->
<defs>
<circle cx="13575" cy="2100" r="75" id="p11"/>
<pattern id="tile11" patternUnits="userSpaceOnUse"
	x="0" y="0" width="134" height="67">
<g stroke-width="7.5" stroke="#000000" fill="none">
<path d="M -7,30 73,70 M 61,-3 141,37"/>
</g>
</pattern>
</defs>
<use xlink:href="#p11" fill="#000000"/>
<use xlink:href="#p11" fill="url(#tile11)"
	stroke="#000000" stroke-width="15px"/>
<!-- Circle -->
<defs>
<circle cx="13575" cy="3600" r="75" id="p12"/>
<pattern id="tile12" patternUnits="userSpaceOnUse"
	x="0" y="0" width="134" height="67">
<g stroke-width="7.5" stroke="#000000" fill="none">
<path d="M -7,30 73,70 M 61,-3 141,37"/>
</g>
</pattern>
</defs>
<use xlink:href="#p12" fill="#000000"/>
<use xlink:href="#p12" fill="url(#tile12)"
	stroke="#000000" stroke-width="15px"/>
<!-- Circle -->
<defs>
<circle cx="11175" cy="4500" r="75" id="p13"/>
<pattern id="tile13" patternUnits="userSpaceOnUse"
	x="0" y="0" width="134" height="67">
<g stroke-width="7.5" stroke="#000000" fill="none">
<path d="M -7,30 73,70 M 61,-3 141,37"/>
</g>
</pattern>
</defs>
<use xlink:href="#p13" fill="#000000"/>
<use xlink:href="#p13" fill="url(#tile13)"
	stroke="#000000" stroke-width="15px"/>
<!-- Circle -->
<defs>
<circle cx="14475" cy="4500" r="75" id="p14"/>
<pattern id="tile14" patternUnits="userSpaceOnUse"
	x="0" y="0" width="134" height="67">
<g stroke-width="7.5" stroke="#000000" fill="none">
<path d="M -7,30 73,70 M 61,-3 141,37"/>
</g>
</pattern>
</defs>
<use xlink:href="#p14" fill="#000000"/>
<use xlink:href="#p14" fill="url(#tile14)"
	stroke="#000000" stroke-width="15px"/>
<!-- Circle -->
<defs>
<circle cx="6075" cy="1200" r="75" id="p15"/>
<pattern id="tile15" patternUnits="userSpaceOnUse"
	x="0" y="0" width="134" height="67">
<g stroke-width="7.5" stroke="#000000" fill="none">
<path d="M -7,30 73,70 M 61,-3 141,37"/>
</g>
</pattern>
</defs>
<use xlink:href="#p15" fill="#000000"/>
<use xlink:href="#p15" fill="url(#tile15)"
	stroke="#000000" stroke-width="15px"/>
<!-- Circle -->
<defs>
<circle cx="6975" cy="3600" r="75" id="p16"/>
<pattern id="tile16" patternUnits="userSpaceOnUse"
	x="0" y="0" width="134" height="67">
<g stroke-width="7.5" stroke="#000000" fill="none">
<path d="M -7,30 73,70 M 61,-3 141,37"/>
</g>
</pattern>
</defs>
<use xlink:href="#p16" fill="#000000"/>
<use xlink:href="#p16" fill="url(#tile16)"
	stroke="#000000" stroke-width="15px"/>
<!-- Circle -->
<defs>
<circle cx="6975" cy="2100" r="75" id="p17"/>
<pattern id="tile17" patternUnits="userSpaceOnUse"
	x="0" y="0" width="134" height="67">
<g stroke-width="7.5" stroke="#000000" fill="none">
<path d="M -7,30 73,70 M 61,-3 141,37"/>
</g>
</pattern>
</defs>
<use xlink:href="#p17" fill="#000000"/>
<use xlink:href="#p17" fill="url(#tile17)"
	stroke="#000000" stroke-width="15px"/>
<!-- Circle -->
<defs>
<circle cx="8475" cy="2100" r="75" id="p18"/>
<pattern id="tile18" patternUnits="userSpaceOnUse"
	x="0" y="0" width="134" height="67">
<g stroke-width="7.5" stroke="#000000" fill="none">
<path d="M -7,30 73,70 M 61,-3 141,37"/>
</g>
</pattern>
</defs>
<use xlink:href="#p18" fill="#000000"/>
<use xlink:href="#p18" fill="url(#tile18)"
	stroke="#000000" stroke-width="15px"/>
<!-- Circle -->
<defs>
<circle cx="8475" cy="3600" r="75" id="p19"/>
<pattern id="tile19" patternUnits="userSpaceOnUse"
	x="0" y="0" width="134" height="67">
<g stroke-width="7.5" stroke="#000000" fill="none">
<path d="M -7,30 73,70 M 61,-3 141,37"/>
</g>
</pattern>
</defs>
<use xlink:href="#p19" fill="#000000"/>
<use xlink:href="#p19" fill="url(#tile19)"
	stroke="#000000" stroke-width="15px"/>
<!-- Circle -->
<defs>
<circle cx="6075" cy="4500" r="75" id="p20"/>
<pattern id="tile20" patternUnits="userSpaceOnUse"
	x="0" y="0" width="134" height="67">
<g stroke-width="7.5" stroke="#000000" fill="none">
<path d="M -7,30 73,70 M 61,-3 141,37"/>
</g>
</pattern>
</defs>
<use xlink:href="#p20" fill="#000000"/>
<use xlink:href="#p20" fill="url(#tile20)"
	stroke="#000000" stroke-width="15px"/>
<!-- Circle -->
<defs>
<circle cx="9375" cy="4500" r="75" id="p21"/>
<pattern id="tile21" patternUnits="userSpaceOnUse"
	x="0" y="0" width="134" height="67">
<g stroke-width="7.5" stroke="#000000" fill="none">
<path d="M -7,30 73,70 M 61,-3 141,37"/>
</g>
</pattern>
</defs>
<use xlink:href="#p21" fill="#000000"/>
<use xlink:href="#p21" fill="url(#tile21)"
	stroke="#000000" stroke-width="15px"/>
<!-- Circle -->
<defs>
<circle cx="9375" cy="1200" r="75" id="p22"/>
<pattern id="tile22" patternUnits="userSpaceOnUse"
	x="0" y="0" width="134" height="67">
<g stroke-width="7.5" stroke="#000000" fill="none">
<path d="M -7,30 73,70 M 61,-3 141,37"/>
</g>
</pattern>
</defs>
<use xlink:href="#p22" fill="#000000"/>
<use xlink:href="#p22" fill="url(#tile22)"
	stroke="#000000" stroke-width="15px"/>
<!-- Circle -->
<defs>
<circle cx="14475" cy="1200" r="75" id="p23"/>
<pattern id="tile23" patternUnits="userSpaceOnUse"
	x="0" y="0" width="134" height="67">
<g stroke-width="7.5" stroke="#000000" fill="none">
<path d="M -7,30 73,70 M 61,-3 141,37"/>
</g>
</pattern>
</defs>
<use xlink:href="#p23" fill="#000000"/>
<use xlink:href="#p23" fill="url(#tile23)"
	stroke="#000000" stroke-width="15px"/>
<!-- Text -->
<text xml:space="preserve" x="1500" y="4350" fill="#000000" font-family="Times" font-style="normal" font-weight="normal" font-size="312" text-anchor="start">5</text>
<!-- Text -->
<text xml:space="preserve" x="8550" y="1725" fill="#000000" font-family="Times" font-style="normal" font-weight="normal" font-size="312" text-anchor="start">3</text>
<!-- Text -->
<text xml:space="preserve" x="8550" y="3075" fill="#000000" font-family="Times" font-style="normal" font-weight="normal" font-size="312" text-anchor="start">6</text>
<!-- Text -->
<text xml:space="preserve" x="8925" y="4050" fill="#000000" font-family="Times" font-style="normal" font-weight="normal" font-size="312" text-anchor="start">3</text>
<!-- Text -->
<text xml:space="preserve" x="1650" y="1800" fill="#000000" font-family="Times" font-style="normal" font-weight="normal" font-size="312" text-anchor="start">5</text>
<!-- Text -->
<text xml:space="preserve" x="3450" y="2925" fill="#000000" font-family="Times" font-style="normal" font-weight="normal" font-size="312" text-anchor="start">4</text>
<!-- Text -->
<text xml:space="preserve" x="1950" y="3000" fill="#000000" font-family="Times" font-style="normal" font-weight="normal" font-size="312" text-anchor="start">5</text>
<!-- Text -->
<text xml:space="preserve" x="11775" y="1725" fill="#000000" font-family="Times" font-style="normal" font-weight="normal" font-size="312" text-anchor="start">3</text>
<!-- Text -->
<text xml:space="preserve" x="11700" y="4350" fill="#000000" font-family="Times" font-style="normal" font-weight="normal" font-size="312" text-anchor="start">5</text>
<!-- Text -->
<text xml:space="preserve" x="450" y="3000" fill="#000000" font-family="Times" font-style="normal" font-weight="normal" font-size="312" text-anchor="start">15</text>
<!-- Text -->
<text xml:space="preserve" x="5775" y="2925" fill="#000000" font-family="Times" font-style="normal" font-weight="normal" font-size="312" text-anchor="start">5</text>
<!-- Text -->
<text xml:space="preserve" x="2625" y="2475" fill="#000000" font-family="Times" font-style="normal" font-weight="normal" font-size="312" text-anchor="start">6</text>
<!-- Text -->
<text xml:space="preserve" x="2625" y="3975" fill="#000000" font-family="Times" font-style="normal" font-weight="normal" font-size="312" text-anchor="start">6</text>
<!-- Text -->
<text xml:space="preserve" x="7800" y="2025" fill="#000000" font-family="Times" font-style="normal" font-weight="normal" font-size="312" text-anchor="start">6</text>
<!-- Text -->
<text xml:space="preserve" x="12900" y="3450" fill="#000000" font-family="Times" font-style="normal" font-weight="normal" font-size="312" text-anchor="start">5</text>
<!-- Text -->
<text xml:space="preserve" x="12975" y="4875" fill="#000000" font-family="Times" font-style="normal" font-weight="normal" font-size="312" text-anchor="start">7</text>
<!-- Text -->
<text xml:space="preserve" x="9450" y="3075" fill="#000000" font-family="Times" font-style="normal" font-weight="normal" font-size="312" text-anchor="start">4</text>
<!-- Text -->
<text xml:space="preserve" x="14100" y="4050" fill="#000000" font-family="Times" font-style="normal" font-weight="normal" font-size="312" text-anchor="start">5</text>
<!-- Text -->
<text xml:space="preserve" x="6675" y="2925" fill="#000000" font-family="Times" font-style="normal" font-weight="normal" font-size="312" text-anchor="start">6</text>
<!-- Text -->
<text xml:space="preserve" x="7650" y="3975" fill="#000000" font-family="Times" font-style="normal" font-weight="normal" font-size="312" text-anchor="start">6</text>
<!-- Text -->
<text xml:space="preserve" x="7800" y="1125" fill="#000000" font-family="Times" font-style="normal" font-weight="normal" font-size="312" text-anchor="start">6</text>
<!-- Text -->
<text xml:space="preserve" x="9900" y="4875" fill="#000000" font-family="Times" font-style="normal" font-weight="normal" font-size="312" text-anchor="start">6</text>
<!-- Text -->
<text xml:space="preserve" x="3525" y="4200" fill="#000000" font-family="Times" font-style="normal" font-weight="normal" font-size="312" text-anchor="start">8</text>
<!-- Text -->
<text xml:space="preserve" x="2325" y="1050" fill="#000000" font-family="Times" font-style="normal" font-weight="normal" font-size="312" text-anchor="start">9</text>
<!-- Text -->
<text xml:space="preserve" x="4350" y="2925" fill="#000000" font-family="Times" font-style="normal" font-weight="normal" font-size="312" text-anchor="start">9</text>
<!-- Text -->
<text xml:space="preserve" x="10125" y="1050" fill="#000000" font-family="Times" font-style="normal" font-weight="normal" font-size="312" text-anchor="start">8</text>
<!-- Text -->
<text xml:space="preserve" x="10875" y="2925" fill="#000000" font-family="Times" font-style="normal" font-weight="normal" font-size="312" text-anchor="start">8</text>
<!-- Text -->
<text xml:space="preserve" x="12150" y="2925" fill="#000000" font-family="Times" font-style="normal" font-weight="normal" font-size="312" text-anchor="start">8</text>
<!-- Text -->
<text xml:space="preserve" x="14550" y="2775" fill="#000000" font-family="Times" font-style="normal" font-weight="normal" font-size="312" text-anchor="start">8</text>
<!-- Text -->
<text xml:space="preserve" x="13725" y="1725" fill="#000000" font-family="Times" font-style="normal" font-weight="normal" font-size="312" text-anchor="start">5</text>
<!-- Text -->
<text xml:space="preserve" x="9525" y="-75" fill="#000000" font-family="Times" font-style="normal" font-weight="normal" font-size="312" text-anchor="start">8</text>
<!-- Text -->
<text xml:space="preserve" x="12300" y="1125" fill="#000000" font-family="Times" font-style="normal" font-weight="normal" font-size="312" text-anchor="start">9</text>
<!-- Text -->
<text xml:space="preserve" x="3375" y="1725" fill="#000000" font-family="Times" font-style="normal" font-weight="normal" font-size="312" text-anchor="start">5</text>
<!-- Text -->
<text xml:space="preserve" x="13650" y="3000" fill="#000000" font-family="Times" font-style="normal" font-weight="normal" font-size="312" text-anchor="start">9</text>
<!-- Text -->
<text xml:space="preserve" x="12675" y="2025" fill="#000000" font-family="Times" font-style="normal" font-weight="normal" font-size="312" text-anchor="start">2</text>
<!-- Text -->
<text xml:space="preserve" x="6675" y="4275" fill="#000000" font-family="Times" font-style="normal" font-weight="normal" font-size="312" text-anchor="start">2</text>
<!-- Text -->
<text xml:space="preserve" x="6675" y="1725" fill="#000000" font-family="Times" font-style="normal" font-weight="normal" font-size="312" text-anchor="start">2</text>
<!-- Text -->
<text xml:space="preserve" x="2325" y="4950" fill="#000000" font-family="Times" font-style="normal" font-weight="normal" font-size="312" text-anchor="start">6</text>
<!-- Text -->
<text xml:space="preserve" x="7800" y="4875" fill="#000000" font-family="Times" font-style="normal" font-weight="normal" font-size="312" text-anchor="start">7</text>
<!-- Text -->
<text xml:space="preserve" x="5325" y="4425" fill="#000000" font-family="Times" font-style="normal" font-weight="normal" font-size="312" text-anchor="start">9</text>
<!-- Text -->
<text xml:space="preserve" x="4800" y="5400" fill="#000000" font-family="Times" font-style="normal" font-weight="normal" font-size="312" text-anchor="start">4</text>
</g>
</svg>
